<?xml version="1.0" encoding="UTF-8"?>
<svg id="Calque_1" data-name="Calque 1" xmlns="http://www.w3.org/2000/svg" viewBox="0 0 426 380">
  <defs>
    <style>
      .cls-1 {
        fill: #fff;
      }

      .cls-2 {
        fill: #825fee;
      }
    </style>
  </defs>
  <path class="cls-2" d="m131.08,66.56c6.17-2.67,24.42-9.6,46.83-4.18,16.53,4,27.5,12.83,32.61,17.56,2.13-.65,6.05-1.54,10.87-.84,5.86.86,9.89,3.6,11.71,5.02,2.24-2.39,15.27-15.83,35.96-15.89,25.28-.07,39.68,19.89,40.97,21.74,5.63.9,38.54,6.65,53.52,33.45,17.3,30.95,4.53,78.98-36.79,107.03-6.87,41.28-31.84,74.06-65.22,83.62-16.74,4.79-32.08,2.74-42.65,0-4.42,1.76-35.1,13.38-66.06-3.34-23.55-12.72-32.71-33.97-35.12-40.14-2.84-1.57-11.38-6.78-15.89-17.56-3.12-7.46-2.87-14.16-2.51-17.56-27.72-12.12-45.25-37.48-44.32-63.55.74-20.76,12.95-35.2,17.56-40.14-.37-2.09-4.91-31.08,16.72-51.01,17.06-15.71,38.13-14.49,41.81-14.22Z"/>
  <circle class="cls-1" cx="177.8" cy="298.61" r="8.47"/>
  <circle class="cls-1" cx="191.29" cy="99.17" r="13.38"/>
  <circle class="cls-1" cx="333.35" cy="179.82" r="13.38"/>
  <circle class="cls-1" cx="276.58" cy="262.23" r="13.38"/>
  <circle class="cls-1" cx="117.7" cy="211.22" r="13.38"/>
  <circle class="cls-1" cx="89.17" cy="206.63" r="8.47"/>
  <circle class="cls-1" cx="356.24" cy="157.88" r="8.47"/>
  <circle class="cls-1" cx="169.44" cy="86.22" r="8.47"/>
  <path class="cls-1" d="m148.83,228.14c-18.12,0-30.74,8.05-30.74,15.27s12.62,15.27,30.74,15.27,30.74-8.05,30.74-15.27-12.63-15.27-30.74-15.27Z"/>
  <circle class="cls-1" cx="293.2" cy="242.59" r="8.47"/>
  <circle class="cls-1" cx="156.17" cy="279.79" r="13.38"/>
  <path class="cls-1" d="m147.21,116.79c.27-2.62.63-11.72-5.82-19.04-6.16-6.99-16.02-9.78-25.72-7.27-4.73,1.25-11.63,4.13-17.48,10.64-3.49,3.88-9.31,11.99-9.13,22.66.08,4.27,1.09,8.58,3.03,12.81.69,1.51,1.78,3.4,8.79,12.7,3.46,4.47,5.55,7.18,6.77,8.78.62.81,1.02,1.33,1.27,1.66,2.38,3.14-.04,5.16-.32,5.38-.75.58-1.7.84-2.64.72-.99-.13-1.32-.17-2.44-1.5h0s-.04-.04-.07-.09c-.56-.67-1.32-1.66-2.45-3.11-1.07-1.38-3.18-4.13-5.57-7.3-1.35-1.2-5.26-4.17-10.54-3.87-1.02.06-4.53.42-7.17,2.56-5,4.05-6.25,12.8-3.13,21.81,2.38,4.89,7.83,13.45,18.03,17.27,15.82,5.93,35.61-2.18,42.35-17.35,6.08-13.69-.51-27.26-3.41-32.17-1.64.19-3.29.21-4.93.08-3.01-.15-6.48-.84-10.05-2.59-5.52-2.7-8.84-6.76-10.65-9.68-1.02-1.64-.53-3.79,1.08-4.84,1.62-1.05,3.78-.61,4.86.99,3.56,5.25,9.17,8.47,14.97,9.03,2.31.13,4.26-.17,5.55-.46.35-.08.7-.11,1.04-.08.61-.17,1.21-.37,1.81-.6,6.73-2.64,11.43-9.32,11.98-17.02,0-.04,0-.07,0-.11Z"/>
  <path class="cls-1" d="m347.01,130.36c-2.66-7.55-9.93-14.39-18.99-17.85-7.37-2.82-14.64-2.93-19.44-.29-2.85,1.57-4.72,4.03-6.67,6.92.13,1.75.13,3.58-.06,5.47-.83,8.34-4.81,14.65-5.6,15.83-.73,1.09-1.46,2.04-2.19,2.9-.64,4.86-1.09,9.74-1.34,14.59.21.23.43.45.65.68,10.05,10.6,11.03,12.19,12.37,15.21,1.62,3.65,1.75,7.37.35,10.75-1.6,3.88-5.27,7.26-9.83,9.04-.16.06-.33.12-.49.17,1.46,5.94,3.58,11.53,6.64,15.57h0c1.6,2.11,3.4,3.5,5.2,4.02,3.1.89,5.91-.47,6.22-.63,2.14-1.09,3.27-2.82,3.75-3.76.01-.03.03-.06.04-.08,1.8-3.25,2.54-6.4,2.22-9.36-.32-2.92-1.57-4.77-3.15-7.12-1.9-2.82-4.05-6.01-4.77-11.29-.36-2.62-1.3-9.6,3.47-15.13,3.73-4.32,8.98-5.34,11.78-5.57.93-.08,1.66-.22,2.24-.33.44-.09.79-.15,1.05-.18,4.23-.47,12.18-4.67,15.84-12.23,3.65-7.53,1.45-15.18.68-17.35Zm-23.42,14.71c-5.08,0-9.2-3.37-9.2-7.53s4.12-7.53,9.2-7.53,9.2,3.37,9.2,7.53-4.12,7.53-9.2,7.53Z"/>
  <path class="cls-1" d="m242.01,128.03s-.02-.06-.03-.1c-1.13-4.06-4.7-6.9-8.67-6.9h-.01c-4.53,0-8.47,3.72-8.97,8.48-.01.11-.03.21-.05.32-.96,4.85-1.67,9.8-2.1,14.72-.5,5.71-.64,11.51-.42,17.24.01.27,0,.53-.06.79-.68,3.6-3.94,6.14-7.6,5.9-3.6-.24-6.51-3.14-6.76-6.75,0-.11,0-.21,0-.32.13-6.16-.15-12.39-.84-18.51-.49-4.36-1.2-8.74-2.1-13.03-1.03-4.77-4.9-8.41-9.4-8.86-5.42-.54-10.57,3.52-11.7,9.24-.01.06-.03.13-.04.19-1.76,6.88-2.63,13.83-2.62,20.78,4.6-.36,8.79.74,11.78,3.43,4.02,3.61,4.82,9.14,4.94,12.11.19,4.93-1.81,10.17-6.12,16.04-.86,1.17-1.76,2.27-2.68,3.32.01.02.02.04.03.07,4.88,8.67,14.08,14.05,24.03,14.05s19.19-5.4,24.07-14.11c5.01-9.54,7.99-20.22,8.64-30.89.56-9.2-.55-18.36-3.3-27.21Z"/>
  <path class="cls-1" d="m141.43,177.12c-2.35,5.3-5.94,9.84-10.28,13.51.32,1.38.95,3,2.22,4.5,2.74,3.23,6.47,3.7,7.55,3.77,7.29.37,14.41-.68,21.14-3.14,5.53-2.02,15.92-6.93,23.45-17.17,3.28-4.46,4.88-8.35,4.75-11.56-.12-3.11-1.09-5.77-2.59-7.12-3.38-3.03-11.83-2.26-19.61,4.26-1.25,1.04-3.04,1.11-4.36.15-1.32-.96-1.81-2.69-1.2-4.19,4.61-11.43,7.78-23.11,9.39-34.7,1.4-10,.89-15.05-1.95-19.28-.8-1.19-3.23-4.83-7.32-5.59-3.23-.61-6.86.7-9.82,3.39,1.9,6.02,1.68,11.36,1.46,13.5-.6,8.32-4.87,15.77-11.3,20.27-.17.67-.34,1.35-.5,2.02-.46,1.87-.93,3.76-1.39,5.64,3.18,7.81,5.76,19.57.35,31.74Z"/>
  <g>
    <path class="cls-1" d="m249.88,194.28c1.76.3,3.33.1,4.51-.22-1.58-.07-3.09,0-4.51.22Z"/>
    <path class="cls-1" d="m299.27,176.7c-.85-1.91-1.31-2.96-11.04-13.22-6.94-7.32-8.59-9.06-8.5-12.57.1-3.98,2.63-6.21,5.07-8.36,1.73-1.53,3.69-3.25,5.55-6.05.38-.58,3.76-5.8,4.44-12.6,1.12-11.31-6.08-20.04-6.66-20.72-.72-.78-11.52-12.21-27.22-9.31-.45.08-.89.18-.96.2,0,0,0,0,0,0-.42.09-.84.2-1.25.31-9.74,2.68-16.91,11.19-18.5,21.2,4.06,2.01,7.27,5.73,8.58,10.39,2.99,9.66,4.2,19.65,3.59,29.7-.69,11.46-3.87,22.92-9.17,33.19,5.14-2.21,11.51-2.53,18.21-.93.46-2.24.26-5.16-.08-9.01-.3-3.43-.88-6.57-1.35-9.09-.93-5.04-1.6-8.68,1.85-10.13.94-.4,1.95-.42,3.08-.05,3.9,1.26,5.58,5.06,6.4,6.89.38.86.76,1.72,1.13,2.58,2.53,5.84,4.91,11.35,9.65,15.06,2.2,1.72,4.31,2.43,5.38,2.7,1.19.3,3.96,1.01,6.2.13,2.15-.84,4.82-2.63,5.85-5.13.66-1.59.56-3.29-.28-5.18Zm-31.88-44.92c-5.08,0-9.2-3.37-9.2-7.53s4.12-7.53,9.2-7.53,9.2,3.37,9.2,7.53-4.12,7.53-9.2,7.53Z"/>
  </g>
  <g>
    <path class="cls-1" d="m283.27,214.07c-2.66-7.55-9.93-14.39-18.99-17.85-7.37-2.82-14.64-2.93-19.44-.29-3.29,1.81-5.27,4.8-7.56,8.26-1.37,2.07-2.52,4.28-3.49,6.59.3.69.57,1.41.78,2.15,2.99,9.66,4.2,19.65,3.59,29.7-.61,10.04-3.12,20.08-7.3,29.33,1.42,7.9,3.81,15.83,7.82,21.11,1.6,2.11,3.4,3.5,5.2,4.02,3.11.89,5.91-.47,6.22-.63,2.14-1.1,3.27-2.83,3.76-3.76.01-.03.03-.05.04-.08,1.79-3.25,2.54-6.4,2.22-9.36-.32-2.92-1.57-4.77-3.15-7.12-1.9-2.82-4.05-6.01-4.77-11.29-.36-2.62-1.3-9.6,3.47-15.13,3.73-4.32,8.98-5.34,11.78-5.57.93-.07,1.66-.22,2.24-.33.44-.09.79-.15,1.05-.18,4.22-.47,12.18-4.67,15.84-12.23,3.65-7.53,1.44-15.18.68-17.35Zm-23.42,14.71c-5.08,0-9.2-3.37-9.2-7.53s4.12-7.53,9.2-7.53,9.2,3.37,9.2,7.53-4.12,7.53-9.2,7.53Z"/>
    <polygon class="cls-1" points="238.68 293.07 238.68 293.07 238.68 293.07 238.68 293.07"/>
  </g>
  <path class="cls-1" d="m227.79,214.99s-.02-.06-.03-.1c-1.13-4.06-4.7-6.9-8.67-6.9h-.01c-4.53,0-8.47,3.72-8.97,8.48-.01.11-.03.21-.05.32-.96,4.84-1.67,9.8-2.1,14.72-.5,5.71-.64,11.51-.42,17.24.01.27,0,.53-.06.79-.68,3.6-3.94,6.14-7.6,5.9-3.6-.24-6.51-3.14-6.76-6.75,0-.11,0-.21,0-.32.13-6.16-.15-12.39-.84-18.51-.49-4.36-1.2-8.74-2.1-13.03-1.03-4.77-4.9-8.41-9.4-8.86-5.42-.55-10.57,3.52-11.7,9.24-.01.06-.03.13-.04.19-.56,2.17-1,4.34-1.38,6.52,11.44,3.8,19.01,11.02,19.01,19.48,0,7.86-6.53,14.65-16.63,18.62,1.17,3.79,2.61,7.5,4.33,11.11,4.88,8.67,14.08,14.05,24.03,14.05s19.19-5.41,24.07-14.11c5.01-9.54,7.99-20.22,8.64-30.89.56-9.2-.55-18.36-3.3-27.21Z"/>
</svg>