<svg viewBox="0 0 95 66" fill="currentColor" xmlns="http://www.w3.org/2000/svg">
<path d="M69.2711 48.275C69.2711 53.3108 65.1634 57.414 60.122 57.414C55.0807 57.414 50.9729 53.3108 50.9729 48.275V24.4019C50.9729 23.9169 51.2716 23.432 51.7945 23.2455L55.23 22.0145C55.7528 21.828 56.3503 22.0892 56.5371 22.6114C56.5744 22.7233 56.6117 22.8352 56.6117 22.9471V48.2377C56.6117 50.1774 58.1802 51.7441 60.122 51.7441C62.0639 51.7441 63.6323 50.1774 63.6323 48.2377V21.7534C63.6323 21.2685 63.931 20.7836 64.4538 20.5971L67.8894 19.3661C68.4123 19.1796 69.0097 19.4407 69.1965 19.963C69.2338 20.0749 69.2711 20.1868 69.2711 20.2987V48.275Z" fill="currentColor"></path><path d="M85.4409 21.2313C83.499 21.2313 81.9306 22.7979 81.9306 24.7376V41.0758C81.9306 43.0155 83.499 44.5822 85.4409 44.5822C87.3827 44.5822 88.9512 43.0155 88.9512 41.0758V24.7376C88.9885 22.7979 87.3827 21.2313 85.4409 21.2313ZM81.9306 63.1585C81.9306 63.6807 81.5945 64.1284 81.109 64.3149L77.6735 65.5831C77.5614 65.6204 77.4494 65.6577 77.3374 65.6577C76.7772 65.6577 76.3291 65.2101 76.3291 64.6506V24.8122C76.3291 19.7392 80.4369 15.636 85.4782 15.636C90.5196 15.636 94.6273 19.7392 94.6273 24.7749V41.1131C94.6273 46.1489 90.5196 50.2521 85.4782 50.2521C84.2832 50.2521 83.0509 49.991 81.9679 49.4314V63.1585H81.9306Z" fill="currentColor"></path><path d="M31.3304 43.7989V6.34782C31.3304 6.23591 31.293 6.12401 31.2557 6.0121C31.069 5.48987 30.4715 5.19146 29.9487 5.41527L26.5131 6.64623C26.0276 6.83274 25.6915 7.28036 25.6915 7.80259V45.2536C25.6915 45.3655 25.7289 45.4774 25.7662 45.5893C25.9529 46.1116 26.5504 46.41 27.0732 46.1862L30.5088 44.9552C31.0316 44.7314 31.3304 44.2838 31.3304 43.7989Z" fill="currentColor"></path><path d="M6.01154 33.7273V40.852C6.01154 42.7917 7.57996 44.3583 9.52181 44.3583C11.4637 44.3583 13.0321 42.7917 13.0321 40.852V28.4678L8.10277 30.594C6.87043 31.1535 6.04888 32.3844 6.04888 33.8019L6.01154 33.7273ZM0.410034 33.8019C0.410034 30.0344 2.72532 26.7892 6.01154 25.3717L12.696 22.5368C12.9201 22.4622 13.0694 22.2384 13.0694 21.9772V17.1653C13.0694 16.8669 13.0321 16.5685 12.9201 16.2701C12.4346 14.9272 10.9782 14.2558 9.63384 14.7407L5.22733 16.3447C4.70452 16.5312 4.10703 16.2701 3.92031 15.7478L2.76266 12.5026C2.57595 11.9803 2.83735 11.3835 3.36016 11.197L7.6173 9.48113C8.58823 9.10811 9.74587 8.84699 11.0155 8.80969C15.2727 8.80969 18.7083 12.1669 18.7083 16.4193V40.852C18.7083 45.8877 14.6005 49.9909 9.55916 49.9909C4.5178 49.9909 0.410034 45.8877 0.410034 40.852V33.7273" fill="currentColor"></path><path d="M50.9355 5.71368L44.7739 7.95179C44.2884 8.1383 43.9897 8.58592 43.9897 9.10815V41.1877C43.9897 41.6726 43.6909 42.1576 43.1681 42.3441L39.7325 43.575C39.2097 43.7615 38.6122 43.5004 38.4255 42.9782C38.3882 42.8663 38.3508 42.7544 38.3508 42.6425V6.57162C38.3508 5.19145 39.2097 4.0351 40.4047 3.58747L48.9937 0.454119C49.1057 0.416817 49.2177 0.379517 49.3298 0.379517C49.7779 0.379517 50.1513 0.640628 50.3007 1.05095L51.533 4.40811C51.7197 4.93034 51.4583 5.52717 50.9355 5.71368Z" fill="currentColor"></path>
</svg>